<svg xmlns="http://www.w3.org/2000/svg" width="128" height="128" viewBox="0 0 128 128" shape-rendering="crispEdges" role="img" aria-label="Archer headgear">
  <rect x="88" y="0" width="8" height="8" fill="#e0e0e0"/>
  <rect x="96" y="0" width="8" height="8" fill="#e0e0e0"/>
  <rect x="72" y="8" width="8" height="8" fill="#8a8a8a"/>
  <rect x="80" y="8" width="8" height="8" fill="#8a8a8a"/>
  <rect x="88" y="8" width="8" height="8" fill="#e0e0e0"/>
  <rect x="96" y="8" width="8" height="8" fill="#e0e0e0"/>
  <rect x="40" y="16" width="8" height="8" fill="#8a8a8a"/>
  <rect x="48" y="16" width="8" height="8" fill="#8a8a8a"/>
  <rect x="56" y="16" width="8" height="8" fill="#8a8a8a"/>
  <rect x="64" y="16" width="8" height="8" fill="#8a8a8a"/>
  <rect x="72" y="16" width="8" height="8" fill="#8a8a8a"/>
  <rect x="80" y="16" width="8" height="8" fill="#e0e0e0"/>
  <rect x="88" y="16" width="8" height="8" fill="#e0e0e0"/>
  <rect x="24" y="24" width="8" height="8" fill="#8a8a8a"/>
  <rect x="32" y="24" width="8" height="8" fill="#8a8a8a"/>
  <rect x="40" y="24" width="8" height="8" fill="#8a8a8a"/>
  <rect x="48" y="24" width="8" height="8" fill="#8a8a8a"/>
  <rect x="56" y="24" width="8" height="8" fill="#8a8a8a"/>
  <rect x="64" y="24" width="8" height="8" fill="#8a8a8a"/>
  <rect x="72" y="24" width="8" height="8" fill="#8a8a8a"/>
  <rect x="16" y="32" width="8" height="8" fill="#8a8a8a"/>
  <rect x="24" y="32" width="8" height="8" fill="#8a8a8a"/>
  <rect x="32" y="32" width="8" height="8" fill="#8a8a8a"/>
  <rect x="40" y="32" width="8" height="8" fill="#8a8a8a"/>
  <rect x="48" y="32" width="8" height="8" fill="#8a8a8a"/>
  <rect x="56" y="32" width="8" height="8" fill="#8a8a8a"/>
  <rect x="64" y="32" width="8" height="8" fill="#8a8a8a"/>
  <rect x="72" y="32" width="8" height="8" fill="#8a8a8a"/>
  <rect x="80" y="32" width="8" height="8" fill="#8a8a8a"/>
  <rect x="8" y="40" width="8" height="8" fill="#8a8a8a"/>
  <rect x="16" y="40" width="8" height="8" fill="#8a8a8a"/>
  <rect x="24" y="40" width="8" height="8" fill="#8a8a8a"/>
  <rect x="32" y="40" width="8" height="8" fill="#8a8a8a"/>
  <rect x="40" y="40" width="8" height="8" fill="#8a8a8a"/>
  <rect x="48" y="40" width="8" height="8" fill="#8a8a8a"/>
  <rect x="56" y="40" width="8" height="8" fill="#8a8a8a"/>
  <rect x="64" y="40" width="8" height="8" fill="#8a8a8a"/>
  <rect x="72" y="40" width="8" height="8" fill="#8a8a8a"/>
  <rect x="80" y="40" width="8" height="8" fill="#8a8a8a"/>
  <rect x="88" y="40" width="8" height="8" fill="#8a8a8a"/>
</svg>
