<svg xmlns="http://www.w3.org/2000/svg" width="128" height="128" viewBox="0 0 128 128" shape-rendering="crispEdges" role="img" aria-label="long hair">
  <rect x="24" y="32" width="8" height="8" fill="#8a8a8a"/>
  <rect x="32" y="32" width="8" height="8" fill="currentColor"/>
  <rect x="40" y="32" width="8" height="8" fill="currentColor"/>
  <rect x="48" y="32" width="8" height="8" fill="currentColor"/>
  <rect x="56" y="32" width="8" height="8" fill="currentColor"/>
  <rect x="64" y="32" width="8" height="8" fill="currentColor"/>
  <rect x="72" y="32" width="8" height="8" fill="currentColor"/>
  <rect x="80" y="32" width="8" height="8" fill="#8a8a8a"/>
  <rect x="16" y="40" width="8" height="8" fill="#8a8a8a"/>
  <rect x="24" y="40" width="8" height="8" fill="currentColor"/>
  <rect x="32" y="40" width="8" height="8" fill="currentColor"/>
  <rect x="40" y="40" width="8" height="8" fill="currentColor"/>
  <rect x="48" y="40" width="8" height="8" fill="currentColor"/>
  <rect x="56" y="40" width="8" height="8" fill="currentColor"/>
  <rect x="64" y="40" width="8" height="8" fill="currentColor"/>
  <rect x="72" y="40" width="8" height="8" fill="currentColor"/>
  <rect x="80" y="40" width="8" height="8" fill="currentColor"/>
  <rect x="88" y="40" width="8" height="8" fill="#8a8a8a"/>
  <rect x="8" y="48" width="8" height="8" fill="#8a8a8a"/>
  <rect x="16" y="48" width="8" height="8" fill="currentColor"/>
  <rect x="24" y="48" width="8" height="8" fill="currentColor"/>
  <rect x="80" y="48" width="8" height="8" fill="currentColor"/>
  <rect x="88" y="48" width="8" height="8" fill="currentColor"/>
  <rect x="96" y="48" width="8" height="8" fill="#8a8a8a"/>
  <rect x="8" y="56" width="8" height="8" fill="#8a8a8a"/>
  <rect x="16" y="56" width="8" height="8" fill="currentColor"/>
  <rect x="88" y="56" width="8" height="8" fill="currentColor"/>
  <rect x="96" y="56" width="8" height="8" fill="#8a8a8a"/>
  <rect x="8" y="64" width="8" height="8" fill="#8a8a8a"/>
  <rect x="16" y="64" width="8" height="8" fill="currentColor"/>
  <rect x="88" y="64" width="8" height="8" fill="currentColor"/>
  <rect x="96" y="64" width="8" height="8" fill="#8a8a8a"/>
  <rect x="8" y="72" width="8" height="8" fill="#8a8a8a"/>
  <rect x="16" y="72" width="8" height="8" fill="currentColor"/>
  <rect x="88" y="72" width="8" height="8" fill="currentColor"/>
  <rect x="96" y="72" width="8" height="8" fill="#8a8a8a"/>
  <rect x="8" y="80" width="8" height="8" fill="#8a8a8a"/>
  <rect x="16" y="80" width="8" height="8" fill="currentColor"/>
  <rect x="88" y="80" width="8" height="8" fill="currentColor"/>
  <rect x="96" y="80" width="8" height="8" fill="#8a8a8a"/>
  <rect x="16" y="88" width="8" height="8" fill="#8a8a8a"/>
  <rect x="24" y="88" width="8" height="8" fill="currentColor"/>
  <rect x="88" y="88" width="8" height="8" fill="currentColor"/>
  <rect x="96" y="88" width="8" height="8" fill="#8a8a8a"/>
  <rect x="24" y="96" width="8" height="8" fill="#8a8a8a"/>
  <rect x="32" y="96" width="8" height="8" fill="currentColor"/>
  <rect x="88" y="96" width="8" height="8" fill="currentColor"/>
  <rect x="96" y="96" width="8" height="8" fill="#8a8a8a"/>
  <rect x="32" y="104" width="8" height="8" fill="#8a8a8a"/>
  <rect x="40" y="104" width="8" height="8" fill="currentColor"/>
  <rect x="88" y="104" width="8" height="8" fill="#8a8a8a"/>
</svg>
